<?xml version="1.0" standalone="no"?>
<!DOCTYPE svg PUBLIC "-//W3C//DTD SVG 20010904//EN"
 "http://www.w3.org/TR/2001/REC-SVG-20010904/DTD/svg10.dtd">
<svg version="1.0" xmlns="http://www.w3.org/2000/svg"
 width="360.000000pt" height="360.000000pt" viewBox="0 0 360.000000 360.000000"
 preserveAspectRatio="xMidYMid meet">
<metadata>
Created by potrace 1.14, written by Peter Selinger 2001-2017
</metadata>
<g transform="translate(0.000000,360.000000) scale(0.100000,-0.100000)"
fill="#000000" stroke="none">
<path d="M1665 2994 c-91 -14 -198 -39 -260 -61 -542 -194 -874 -739 -791
-1301 79 -531 483 -938 1009 -1016 132 -20 222 -20 354 0 522 77 930 485 1007
1007 9 58 16 137 16 177 0 40 -7 119 -16 177 -72 490 -438 883 -924 994 -83
19 -327 33 -395 23z m357 -114 c120 -25 237 -70 350 -136 115 -68 304 -256
371 -371 106 -181 147 -324 154 -533 8 -212 -22 -353 -113 -535 -43 -87 -133
-220 -142 -210 -2 2 -8 25 -13 50 -19 100 -101 168 -349 287 -212 102 -249
146 -234 281 9 84 27 127 54 127 47 0 117 234 79 264 -11 8 -14 38 -14 121 0
102 -2 114 -30 168 -71 141 -152 192 -340 213 -45 5 -55 9 -40 15 42 17 -82
-5 -132 -23 -63 -23 -130 -87 -164 -155 -21 -42 -24 -61 -23 -153 0 -73 6
-119 17 -149 17 -43 17 -44 -4 -59 -19 -13 -21 -22 -16 -66 7 -65 39 -161 62
-186 10 -11 26 -20 36 -20 26 0 39 -51 39 -151 l0 -87 -47 -42 c-29 -25 -120
-77 -239 -135 -143 -71 -204 -106 -239 -140 -49 -48 -75 -97 -75 -141 0 -36
-13 -28 -65 41 -53 71 -126 214 -154 304 -76 237 -67 523 24 749 91 225 260
422 466 542 101 59 220 106 331 129 130 27 317 28 450 1z"/>
</g>
</svg>
